<svg xmlns="http://www.w3.org/2000/svg" xmlns:xlink="http://www.w3.org/1999/xlink" width="500" zoomAndPan="magnify" viewBox="0 0 375 225" height="300" preserveAspectRatio="xMidYMid meet" version="1.0"><defs><g/><clipPath id="de86a41825"><path d="M 7.378906 48.054688 L 96.65625 48.054688 L 96.65625 175.570312 L 7.378906 175.570312 Z M 7.378906 48.054688 " clip-rule="nonzero"/></clipPath><clipPath id="ee790ff56c"><path d="M 10.933594 51.910156 L 92.882812 51.910156 L 92.882812 171.714844 L 10.933594 171.714844 Z M 10.933594 51.910156 " clip-rule="nonzero"/></clipPath></defs><g clip-path="url(#de86a41825)"><path fill="#d4c599" d="M 7.378906 48.054688 L 96.65625 48.054688 L 96.65625 175.691406 L 7.378906 175.691406 Z M 7.378906 48.054688 " fill-opacity="1" fill-rule="nonzero"/></g><g clip-path="url(#ee790ff56c)"><path fill="#ffffff" d="M 10.933594 51.910156 L 92.882812 51.910156 L 92.882812 171.636719 L 10.933594 171.636719 Z M 10.933594 51.910156 " fill-opacity="1" fill-rule="nonzero"/></g><g fill="#d4c599" fill-opacity="1"><g transform="translate(12.432322, 161.548136)"><g><path d="M 7.007812 -98.9375 L 7.007812 0 L 71.75 0 L 71.75 -23.121094 L 31.109375 -23.121094 L 31.109375 -38.816406 L 70.769531 -38.816406 L 70.769531 -62.082031 L 31.109375 -62.082031 L 31.109375 -75.8125 L 71.609375 -75.8125 L 71.609375 -98.9375 Z M 7.007812 -98.9375 "/></g></g></g><g fill="#d4c599" fill-opacity="1"><g transform="translate(105.597879, 125.417257)"><g><path d="M 22.28125 -23.195312 L 14.570312 -23.195312 L 14.570312 -20.058594 L 31.234375 0 L 39.792969 0 L 25.351562 -17.183594 C 33.195312 -18.558594 37.179688 -24.699219 37.179688 -31.167969 C 37.179688 -38.421875 32.214844 -46.328125 22.28125 -46.328125 L 5.621094 -46.328125 L 5.621094 0 L 12.152344 0 L 12.152344 -39.664062 L 22.28125 -39.664062 C 27.835938 -39.664062 30.578125 -35.089844 30.578125 -31.167969 C 30.578125 -27.183594 27.835938 -23.195312 22.28125 -23.195312 Z M 22.28125 -23.195312 "/></g></g></g><g fill="#d4c599" fill-opacity="1"><g transform="translate(144.539429, 125.417257)"><g><path d="M 11.304688 -11.566406 L 29.859375 -11.566406 L 34.238281 0 L 41.296875 0 L 22.933594 -46.328125 L 18.101562 -46.328125 L -0.261719 0 L 6.859375 0 Z M 27.445312 -17.773438 L 13.722656 -17.773438 L 20.582031 -35.808594 Z M 27.445312 -17.773438 "/></g></g></g><g fill="#d4c599" fill-opacity="1"><g transform="translate(185.963833, 125.417257)"><g><path d="M 28.488281 -33.914062 L 35.023438 -34.171875 C 33.847656 -42.539062 26.527344 -46.195312 19.472656 -46.195312 C 14.179688 -46.195312 8.691406 -44.105469 5.621094 -40.121094 C 3.921875 -37.898438 3.070312 -35.285156 3.070312 -32.539062 C 3.070312 -32.214844 3.136719 -31.820312 3.136719 -31.429688 L 3.136719 -31.496094 C 3.855469 -21.953125 12.21875 -20.386719 19.339844 -19.667969 C 23.914062 -19.210938 28.621094 -18.621094 29.402344 -15.160156 C 29.535156 -14.570312 29.601562 -14.046875 29.601562 -13.589844 C 29.601562 -8.886719 24.242188 -6.140625 19.339844 -6.140625 C 15.09375 -6.140625 9.933594 -8.363281 9.472656 -12.609375 L 9.472656 -12.347656 L 9.410156 -13.328125 L 2.746094 -13.199219 L 2.808594 -11.957031 C 3.660156 -3.789062 12.21875 0.390625 19.277344 0.390625 C 27.507812 0.390625 36.265625 -4.703125 36.265625 -13.527344 C 36.265625 -14.441406 36.132812 -15.550781 35.9375 -16.53125 C 34.171875 -23.851562 26.398438 -25.484375 20.125 -26.265625 C 15.027344 -26.726562 9.734375 -27.378906 9.734375 -32.671875 C 9.734375 -33.976562 10.0625 -35.285156 10.847656 -36.265625 C 12.742188 -38.683594 16.203125 -39.726562 19.339844 -39.726562 C 23.261719 -39.726562 27.574219 -37.964844 28.488281 -33.914062 Z M 28.488281 -33.914062 "/></g></g></g><g fill="#d4c599" fill-opacity="1"><g transform="translate(224.840035, 125.417257)"><g><path d="M 2.285156 -22.871094 C 2.285156 -9.671875 12.808594 0.847656 26.007812 0.847656 C 39.203125 0.847656 49.789062 -9.671875 49.789062 -22.871094 C 49.789062 -36.070312 39.203125 -46.652344 26.007812 -46.652344 C 12.808594 -46.652344 2.285156 -36.070312 2.285156 -22.871094 Z M 9.082031 -22.871094 C 9.082031 -32.277344 16.597656 -39.859375 26.007812 -39.859375 C 35.414062 -39.859375 42.996094 -32.277344 42.996094 -22.871094 C 42.996094 -13.460938 35.414062 -5.945312 26.007812 -5.945312 C 16.597656 -5.945312 9.082031 -13.460938 9.082031 -22.871094 Z M 9.082031 -22.871094 "/></g></g></g><g fill="#d4c599" fill-opacity="1"><g transform="translate(277.371921, 125.417257)"><g><path d="M 5.621094 0 L 12.21875 0 L 12.21875 -20.058594 L 30.515625 -20.058594 L 30.515625 -26.203125 L 12.21875 -26.203125 L 12.21875 -39.726562 L 32.867188 -39.726562 L 32.867188 -46.132812 L 5.621094 -46.132812 Z M 5.621094 0 "/></g></g></g><g fill="#d4c599" fill-opacity="1"><g transform="translate(311.674457, 125.417257)"><g><path d="M 14.246094 -39.921875 L 14.246094 0 L 20.84375 0 L 20.84375 -39.921875 L 34.632812 -39.921875 L 34.632812 -46.195312 L 0.390625 -46.195312 L 0.390625 -39.921875 Z M 14.246094 -39.921875 "/></g></g></g><g fill="#d4c599" fill-opacity="1"><g transform="translate(104.852866, 158.656873)"><g><path d="M 2.925781 -6.132812 L 0.746094 -6.132812 L 0.746094 0 L 2.925781 0 C 4.914062 0 5.914062 -1.511719 5.914062 -3.03125 C 5.914062 -4.550781 4.914062 -6.132812 2.925781 -6.132812 Z M 2.925781 -0.878906 L 1.625 -0.878906 L 1.625 -5.253906 L 2.925781 -5.253906 C 4.332031 -5.253906 5.046875 -4.109375 5.046875 -3.03125 C 5.046875 -1.953125 4.332031 -0.878906 2.925781 -0.878906 Z M 2.925781 -0.878906 "/></g></g></g><g fill="#d4c599" fill-opacity="1"><g transform="translate(111.149561, 158.656873)"><g><path d="M 2.753906 -5.324219 L 3.882812 -5.324219 L 3.882812 -6.132812 L 0.746094 -6.132812 L 0.746094 -5.324219 L 1.875 -5.324219 L 1.875 -0.816406 L 0.746094 -0.816406 L 0.746094 0 L 3.882812 0 L 3.882812 -0.816406 L 2.753906 -0.816406 Z M 2.753906 -5.324219 "/></g></g></g><g fill="#d4c599" fill-opacity="1"><g transform="translate(115.770036, 158.656873)"><g><path d="M 3.785156 -4.507812 L 4.65625 -4.542969 C 4.5 -5.652344 3.527344 -6.140625 2.589844 -6.140625 C 1.882812 -6.140625 1.15625 -5.863281 0.746094 -5.332031 C 0.519531 -5.039062 0.40625 -4.691406 0.40625 -4.324219 C 0.40625 -4.28125 0.417969 -4.230469 0.417969 -4.175781 L 0.417969 -4.1875 C 0.511719 -2.917969 1.625 -2.710938 2.570312 -2.613281 C 3.179688 -2.554688 3.804688 -2.476562 3.910156 -2.015625 C 3.925781 -1.9375 3.933594 -1.867188 3.933594 -1.804688 C 3.933594 -1.179688 3.222656 -0.816406 2.570312 -0.816406 C 2.007812 -0.816406 1.320312 -1.113281 1.257812 -1.675781 L 1.257812 -1.640625 L 1.25 -1.773438 L 0.363281 -1.753906 L 0.375 -1.589844 C 0.488281 -0.503906 1.625 0.0507812 2.5625 0.0507812 C 3.65625 0.0507812 4.820312 -0.625 4.820312 -1.796875 C 4.820312 -1.917969 4.804688 -2.066406 4.777344 -2.199219 C 4.542969 -3.171875 3.507812 -3.386719 2.675781 -3.492188 C 1.996094 -3.550781 1.292969 -3.640625 1.292969 -4.34375 C 1.292969 -4.515625 1.335938 -4.691406 1.441406 -4.820312 C 1.695312 -5.140625 2.152344 -5.28125 2.570312 -5.28125 C 3.09375 -5.28125 3.664062 -5.046875 3.785156 -4.507812 Z M 3.785156 -4.507812 "/></g></g></g><g fill="#d4c599" fill-opacity="1"><g transform="translate(120.937667, 158.656873)"><g><path d="M 0.339844 -3.023438 C 0.339844 -2.179688 0.703125 -1.40625 1.222656 -0.851562 C 1.753906 -0.296875 2.519531 0.0429688 3.34375 0.0429688 C 4.757812 0.0429688 5.871094 -0.894531 6.21875 -2.277344 L 5.359375 -2.277344 C 5.046875 -1.355469 4.265625 -0.824219 3.34375 -0.824219 C 2.761719 -0.824219 2.179688 -1.066406 1.796875 -1.46875 C 1.414062 -1.867188 1.191406 -2.414062 1.191406 -3.023438 C 1.191406 -3.648438 1.425781 -4.1875 1.804688 -4.585938 C 2.1875 -4.984375 2.761719 -5.261719 3.34375 -5.261719 C 4.238281 -5.261719 4.984375 -4.777344 5.304688 -3.863281 L 6.175781 -3.863281 C 5.828125 -5.238281 4.734375 -6.132812 3.34375 -6.132812 C 2.519531 -6.132812 1.726562 -5.75 1.199219 -5.203125 C 0.675781 -4.648438 0.339844 -3.882812 0.339844 -3.023438 Z M 0.339844 -3.023438 "/></g></g></g><g fill="#d4c599" fill-opacity="1"><g transform="translate(127.486233, 158.656873)"><g><path d="M 0.304688 -3.039062 C 0.304688 -1.285156 1.703125 0.113281 3.457031 0.113281 C 5.210938 0.113281 6.617188 -1.285156 6.617188 -3.039062 C 6.617188 -4.792969 5.210938 -6.199219 3.457031 -6.199219 C 1.703125 -6.199219 0.304688 -4.792969 0.304688 -3.039062 Z M 1.207031 -3.039062 C 1.207031 -4.289062 2.207031 -5.296875 3.457031 -5.296875 C 4.707031 -5.296875 5.714844 -4.289062 5.714844 -3.039062 C 5.714844 -1.789062 4.707031 -0.789062 3.457031 -0.789062 C 2.207031 -0.789062 1.207031 -1.789062 1.207031 -3.039062 Z M 1.207031 -3.039062 "/></g></g></g><g fill="#d4c599" fill-opacity="1"><g transform="translate(134.469055, 158.656873)"><g><path d="M 5.566406 -6.140625 L 4.628906 -6.140625 L 2.777344 -1.527344 L 0.945312 -6.140625 L -0.0078125 -6.140625 L 2.457031 0.015625 L 3.101562 0.015625 Z M 5.566406 -6.140625 "/></g></g></g><g fill="#d4c599" fill-opacity="1"><g transform="translate(139.966723, 158.656873)"><g><path d="M 4.457031 -0.878906 L 1.632812 -0.878906 L 1.632812 -2.667969 L 4.386719 -2.667969 L 4.386719 -3.550781 L 1.632812 -3.550781 L 1.632812 -5.261719 L 4.445312 -5.261719 L 4.445312 -6.140625 L 0.746094 -6.140625 L 0.746094 0 L 4.457031 0 Z M 4.457031 -0.878906 "/></g></g></g><g fill="#d4c599" fill-opacity="1"><g transform="translate(144.813007, 158.656873)"><g><path d="M 2.960938 -3.082031 L 1.9375 -3.082031 L 1.9375 -2.667969 L 4.152344 0 L 5.289062 0 L 3.371094 -2.285156 C 4.410156 -2.464844 4.941406 -3.28125 4.941406 -4.144531 C 4.941406 -5.105469 4.28125 -6.15625 2.960938 -6.15625 L 0.746094 -6.15625 L 0.746094 0 L 1.617188 0 L 1.617188 -5.273438 L 2.960938 -5.273438 C 3.699219 -5.273438 4.066406 -4.664062 4.066406 -4.144531 C 4.066406 -3.613281 3.699219 -3.082031 2.960938 -3.082031 Z M 2.960938 -3.082031 "/></g></g></g><g fill="#d4c599" fill-opacity="1"><g transform="translate(149.989329, 158.656873)"><g/></g></g><g fill="#d4c599" fill-opacity="1"><g transform="translate(152.151919, 158.656873)"><g><path d="M 1.894531 -5.304688 L 1.894531 0 L 2.769531 0 L 2.769531 -5.304688 L 4.601562 -5.304688 L 4.601562 -6.140625 L 0.0507812 -6.140625 L 0.0507812 -5.304688 Z M 1.894531 -5.304688 "/></g></g></g><g fill="#d4c599" fill-opacity="1"><g transform="translate(156.815818, 158.656873)"><g><path d="M 4.195312 -3.664062 L 1.625 -3.664062 L 1.625 -6.132812 L 0.746094 -6.132812 L 0.746094 0 L 1.625 0 L 1.625 -2.796875 L 4.195312 -2.796875 L 4.195312 0 L 5.082031 0 L 5.082031 -6.132812 L 4.195312 -6.132812 Z M 4.195312 -3.664062 "/></g></g></g><g fill="#d4c599" fill-opacity="1"><g transform="translate(162.643524, 158.656873)"><g><path d="M 4.457031 -0.878906 L 1.632812 -0.878906 L 1.632812 -2.667969 L 4.386719 -2.667969 L 4.386719 -3.550781 L 1.632812 -3.550781 L 1.632812 -5.261719 L 4.445312 -5.261719 L 4.445312 -6.140625 L 0.746094 -6.140625 L 0.746094 0 L 4.457031 0 Z M 4.457031 -0.878906 "/></g></g></g><g fill="#d4c599" fill-opacity="1"><g transform="translate(167.489808, 158.656873)"><g/></g></g><g fill="#d4c599" fill-opacity="1"><g transform="translate(169.652399, 158.656873)"><g><path d="M 2.96875 -6.078125 L 0.746094 -6.078125 L 0.746094 0 L 1.632812 0 L 1.632812 -2.023438 L 2.96875 -2.023438 C 4.28125 -2.023438 4.941406 -3.03125 4.941406 -4.046875 C 4.941406 -5.0625 4.28125 -6.078125 2.96875 -6.078125 Z M 2.96875 -2.890625 L 1.632812 -2.890625 L 1.632812 -5.195312 L 2.96875 -5.195312 C 3.707031 -5.195312 4.074219 -4.621094 4.074219 -4.039062 C 4.074219 -3.464844 3.707031 -2.890625 2.96875 -2.890625 Z M 2.96875 -2.890625 "/></g></g></g><g fill="#d4c599" fill-opacity="1"><g transform="translate(174.811349, 158.656873)"><g><path d="M 0.304688 -3.039062 C 0.304688 -1.285156 1.703125 0.113281 3.457031 0.113281 C 5.210938 0.113281 6.617188 -1.285156 6.617188 -3.039062 C 6.617188 -4.792969 5.210938 -6.199219 3.457031 -6.199219 C 1.703125 -6.199219 0.304688 -4.792969 0.304688 -3.039062 Z M 1.207031 -3.039062 C 1.207031 -4.289062 2.207031 -5.296875 3.457031 -5.296875 C 4.707031 -5.296875 5.714844 -4.289062 5.714844 -3.039062 C 5.714844 -1.789062 4.707031 -0.789062 3.457031 -0.789062 C 2.207031 -0.789062 1.207031 -1.789062 1.207031 -3.039062 Z M 1.207031 -3.039062 "/></g></g></g><g fill="#d4c599" fill-opacity="1"><g transform="translate(181.794171, 158.656873)"><g><path d="M 3.726562 -2.890625 L 4.792969 0.0351562 L 5.410156 0.0351562 L 7.460938 -6.140625 L 6.539062 -6.140625 C 6.089844 -4.757812 5.550781 -3.144531 5.070312 -1.695312 L 4.082031 -4.523438 L 3.378906 -4.523438 L 2.378906 -1.683594 L 0.902344 -6.140625 L -0.0078125 -6.140625 L 2.058594 0.0351562 L 2.675781 0.0351562 C 2.988281 -0.886719 3.378906 -1.902344 3.726562 -2.890625 Z M 3.726562 -2.890625 "/></g></g></g><g fill="#d4c599" fill-opacity="1"><g transform="translate(189.21125, 158.656873)"><g><path d="M 4.457031 -0.878906 L 1.632812 -0.878906 L 1.632812 -2.667969 L 4.386719 -2.667969 L 4.386719 -3.550781 L 1.632812 -3.550781 L 1.632812 -5.261719 L 4.445312 -5.261719 L 4.445312 -6.140625 L 0.746094 -6.140625 L 0.746094 0 L 4.457031 0 Z M 4.457031 -0.878906 "/></g></g></g><g fill="#d4c599" fill-opacity="1"><g transform="translate(194.057534, 158.656873)"><g><path d="M 2.960938 -3.082031 L 1.9375 -3.082031 L 1.9375 -2.667969 L 4.152344 0 L 5.289062 0 L 3.371094 -2.285156 C 4.410156 -2.464844 4.941406 -3.28125 4.941406 -4.144531 C 4.941406 -5.105469 4.28125 -6.15625 2.960938 -6.15625 L 0.746094 -6.15625 L 0.746094 0 L 1.617188 0 L 1.617188 -5.273438 L 2.960938 -5.273438 C 3.699219 -5.273438 4.066406 -4.664062 4.066406 -4.144531 C 4.066406 -3.613281 3.699219 -3.082031 2.960938 -3.082031 Z M 2.960938 -3.082031 "/></g></g></g><g fill="#d4c599" fill-opacity="1"><g transform="translate(199.233855, 158.656873)"><g/></g></g><g fill="#d4c599" fill-opacity="1"><g transform="translate(201.396446, 158.656873)"><g><path d="M 0.304688 -3.039062 C 0.304688 -1.285156 1.703125 0.113281 3.457031 0.113281 C 5.210938 0.113281 6.617188 -1.285156 6.617188 -3.039062 C 6.617188 -4.792969 5.210938 -6.199219 3.457031 -6.199219 C 1.703125 -6.199219 0.304688 -4.792969 0.304688 -3.039062 Z M 1.207031 -3.039062 C 1.207031 -4.289062 2.207031 -5.296875 3.457031 -5.296875 C 4.707031 -5.296875 5.714844 -4.289062 5.714844 -3.039062 C 5.714844 -1.789062 4.707031 -0.789062 3.457031 -0.789062 C 2.207031 -0.789062 1.207031 -1.789062 1.207031 -3.039062 Z M 1.207031 -3.039062 "/></g></g></g><g fill="#d4c599" fill-opacity="1"><g transform="translate(208.379268, 158.656873)"><g><path d="M 0.746094 0 L 1.625 0 L 1.625 -2.667969 L 4.054688 -2.667969 L 4.054688 -3.484375 L 1.625 -3.484375 L 1.625 -5.28125 L 4.367188 -5.28125 L 4.367188 -6.132812 L 0.746094 -6.132812 Z M 0.746094 0 "/></g></g></g><g fill="#d4c599" fill-opacity="1"><g transform="translate(212.938948, 158.656873)"><g/></g></g><g fill="#d4c599" fill-opacity="1"><g transform="translate(215.101539, 158.656873)"><g><path d="M 1.503906 -1.539062 L 3.96875 -1.539062 L 4.550781 0 L 5.488281 0 L 3.046875 -6.15625 L 2.40625 -6.15625 L -0.0351562 0 L 0.910156 0 Z M 3.648438 -2.363281 L 1.824219 -2.363281 L 2.734375 -4.757812 Z M 3.648438 -2.363281 "/></g></g></g><g fill="#d4c599" fill-opacity="1"><g transform="translate(220.607887, 158.656873)"><g><path d="M 2.753906 -5.324219 L 3.882812 -5.324219 L 3.882812 -6.132812 L 0.746094 -6.132812 L 0.746094 -5.324219 L 1.875 -5.324219 L 1.875 -0.816406 L 0.746094 -0.816406 L 0.746094 0 L 3.882812 0 L 3.882812 -0.816406 L 2.753906 -0.816406 Z M 2.753906 -5.324219 "/></g></g></g><g fill="#d4c599" fill-opacity="1"><g transform="translate(225.228363, 158.656873)"><g/></g></g><g fill="#d4c599" fill-opacity="1"><g transform="translate(227.390953, 158.656873)"><g><path d="M 1.503906 -1.539062 L 3.96875 -1.539062 L 4.550781 0 L 5.488281 0 L 3.046875 -6.15625 L 2.40625 -6.15625 L -0.0351562 0 L 0.910156 0 Z M 3.648438 -2.363281 L 1.824219 -2.363281 L 2.734375 -4.757812 Z M 3.648438 -2.363281 "/></g></g></g><g fill="#d4c599" fill-opacity="1"><g transform="translate(232.897302, 158.656873)"><g><path d="M 0.746094 -6.078125 L 0.746094 0 L 1.625 0 L 1.625 -4.246094 L 4.558594 0 L 5.253906 0 L 5.253906 -6.078125 L 4.386719 -6.078125 L 4.386719 -1.796875 L 1.425781 -6.078125 Z M 0.746094 -6.078125 "/></g></g></g><g fill="#d4c599" fill-opacity="1"><g transform="translate(238.898702, 158.656873)"><g><path d="M 2.925781 -6.132812 L 0.746094 -6.132812 L 0.746094 0 L 2.925781 0 C 4.914062 0 5.914062 -1.511719 5.914062 -3.03125 C 5.914062 -4.550781 4.914062 -6.132812 2.925781 -6.132812 Z M 2.925781 -0.878906 L 1.625 -0.878906 L 1.625 -5.253906 L 2.925781 -5.253906 C 4.332031 -5.253906 5.046875 -4.109375 5.046875 -3.03125 C 5.046875 -1.953125 4.332031 -0.878906 2.925781 -0.878906 Z M 2.925781 -0.878906 "/></g></g></g><g fill="#d4c599" fill-opacity="1"><g transform="translate(245.195396, 158.656873)"><g/></g></g><g fill="#d4c599" fill-opacity="1"><g transform="translate(247.357987, 158.656873)"><g><path d="M 2.925781 -6.132812 L 0.746094 -6.132812 L 0.746094 0 L 2.925781 0 C 4.914062 0 5.914062 -1.511719 5.914062 -3.03125 C 5.914062 -4.550781 4.914062 -6.132812 2.925781 -6.132812 Z M 2.925781 -0.878906 L 1.625 -0.878906 L 1.625 -5.253906 L 2.925781 -5.253906 C 4.332031 -5.253906 5.046875 -4.109375 5.046875 -3.03125 C 5.046875 -1.953125 4.332031 -0.878906 2.925781 -0.878906 Z M 2.925781 -0.878906 "/></g></g></g><g fill="#d4c599" fill-opacity="1"><g transform="translate(253.654681, 158.656873)"><g><path d="M 2.753906 -5.324219 L 3.882812 -5.324219 L 3.882812 -6.132812 L 0.746094 -6.132812 L 0.746094 -5.324219 L 1.875 -5.324219 L 1.875 -0.816406 L 0.746094 -0.816406 L 0.746094 0 L 3.882812 0 L 3.882812 -0.816406 L 2.753906 -0.816406 Z M 2.753906 -5.324219 "/></g></g></g><g fill="#d4c599" fill-opacity="1"><g transform="translate(258.275157, 158.656873)"><g><path d="M 5.410156 -3.941406 L 6.367188 -3.941406 C 6.035156 -5.59375 4.601562 -6.175781 3.414062 -6.175781 C 1.703125 -6.175781 0.363281 -4.863281 0.363281 -3.03125 C 0.363281 -1.207031 1.675781 0.105469 3.414062 0.105469 C 4.542969 0.105469 5.808594 -0.722656 6.234375 -1.902344 L 6.234375 -1.894531 C 6.324219 -2.101562 6.367188 -2.449219 6.410156 -2.96875 L 3.066406 -2.96875 L 3.066406 -2.074219 L 5.359375 -2.074219 C 4.992188 -1.171875 4.175781 -0.753906 3.414062 -0.753906 C 2.199219 -0.753906 1.257812 -1.71875 1.257812 -3.03125 C 1.257812 -4.332031 2.199219 -5.28125 3.414062 -5.28125 C 4.203125 -5.28125 5.160156 -4.941406 5.410156 -3.941406 Z M 5.410156 -3.941406 "/></g></g></g><g fill="#d4c599" fill-opacity="1"><g transform="translate(265.145069, 158.656873)"><g><path d="M 2.753906 -5.324219 L 3.882812 -5.324219 L 3.882812 -6.132812 L 0.746094 -6.132812 L 0.746094 -5.324219 L 1.875 -5.324219 L 1.875 -0.816406 L 0.746094 -0.816406 L 0.746094 0 L 3.882812 0 L 3.882812 -0.816406 L 2.753906 -0.816406 Z M 2.753906 -5.324219 "/></g></g></g><g fill="#d4c599" fill-opacity="1"><g transform="translate(269.765545, 158.656873)"><g><path d="M 1.894531 -5.304688 L 1.894531 0 L 2.769531 0 L 2.769531 -5.304688 L 4.601562 -5.304688 L 4.601562 -6.140625 L 0.0507812 -6.140625 L 0.0507812 -5.304688 Z M 1.894531 -5.304688 "/></g></g></g><g fill="#d4c599" fill-opacity="1"><g transform="translate(274.429444, 158.656873)"><g><path d="M 1.503906 -1.539062 L 3.96875 -1.539062 L 4.550781 0 L 5.488281 0 L 3.046875 -6.15625 L 2.40625 -6.15625 L -0.0351562 0 L 0.910156 0 Z M 3.648438 -2.363281 L 1.824219 -2.363281 L 2.734375 -4.757812 Z M 3.648438 -2.363281 "/></g></g></g><g fill="#d4c599" fill-opacity="1"><g transform="translate(279.935792, 158.656873)"><g><path d="M 4.480469 -0.878906 L 1.625 -0.878906 L 1.625 -6.078125 L 0.746094 -6.078125 L 0.746094 0 L 4.480469 0 Z M 4.480469 -0.878906 "/></g></g></g><g fill="#d4c599" fill-opacity="1"><g transform="translate(284.46073, 158.656873)"><g/></g></g><g fill="#d4c599" fill-opacity="1"><g transform="translate(286.62332, 158.656873)"><g><path d="M 1.894531 -5.304688 L 1.894531 0 L 2.769531 0 L 2.769531 -5.304688 L 4.601562 -5.304688 L 4.601562 -6.140625 L 0.0507812 -6.140625 L 0.0507812 -5.304688 Z M 1.894531 -5.304688 "/></g></g></g><g fill="#d4c599" fill-opacity="1"><g transform="translate(291.287208, 158.656873)"><g><path d="M 2.960938 -3.082031 L 1.9375 -3.082031 L 1.9375 -2.667969 L 4.152344 0 L 5.289062 0 L 3.371094 -2.285156 C 4.410156 -2.464844 4.941406 -3.28125 4.941406 -4.144531 C 4.941406 -5.105469 4.28125 -6.15625 2.960938 -6.15625 L 0.746094 -6.15625 L 0.746094 0 L 1.617188 0 L 1.617188 -5.273438 L 2.960938 -5.273438 C 3.699219 -5.273438 4.066406 -4.664062 4.066406 -4.144531 C 4.066406 -3.613281 3.699219 -3.082031 2.960938 -3.082031 Z M 2.960938 -3.082031 "/></g></g></g><g fill="#d4c599" fill-opacity="1"><g transform="translate(296.463519, 158.656873)"><g><path d="M 1.503906 -1.539062 L 3.96875 -1.539062 L 4.550781 0 L 5.488281 0 L 3.046875 -6.15625 L 2.40625 -6.15625 L -0.0351562 0 L 0.910156 0 Z M 3.648438 -2.363281 L 1.824219 -2.363281 L 2.734375 -4.757812 Z M 3.648438 -2.363281 "/></g></g></g><g fill="#d4c599" fill-opacity="1"><g transform="translate(301.969856, 158.656873)"><g><path d="M 0.746094 -6.078125 L 0.746094 0 L 1.625 0 L 1.625 -4.246094 L 4.558594 0 L 5.253906 0 L 5.253906 -6.078125 L 4.386719 -6.078125 L 4.386719 -1.796875 L 1.425781 -6.078125 Z M 0.746094 -6.078125 "/></g></g></g><g fill="#d4c599" fill-opacity="1"><g transform="translate(307.971256, 158.656873)"><g><path d="M 3.785156 -4.507812 L 4.65625 -4.542969 C 4.5 -5.652344 3.527344 -6.140625 2.589844 -6.140625 C 1.882812 -6.140625 1.15625 -5.863281 0.746094 -5.332031 C 0.519531 -5.039062 0.40625 -4.691406 0.40625 -4.324219 C 0.40625 -4.28125 0.417969 -4.230469 0.417969 -4.175781 L 0.417969 -4.1875 C 0.511719 -2.917969 1.625 -2.710938 2.570312 -2.613281 C 3.179688 -2.554688 3.804688 -2.476562 3.910156 -2.015625 C 3.925781 -1.9375 3.933594 -1.867188 3.933594 -1.804688 C 3.933594 -1.179688 3.222656 -0.816406 2.570312 -0.816406 C 2.007812 -0.816406 1.320312 -1.113281 1.257812 -1.675781 L 1.257812 -1.640625 L 1.25 -1.773438 L 0.363281 -1.753906 L 0.375 -1.589844 C 0.488281 -0.503906 1.625 0.0507812 2.5625 0.0507812 C 3.65625 0.0507812 4.820312 -0.625 4.820312 -1.796875 C 4.820312 -1.917969 4.804688 -2.066406 4.777344 -2.199219 C 4.542969 -3.171875 3.507812 -3.386719 2.675781 -3.492188 C 1.996094 -3.550781 1.292969 -3.640625 1.292969 -4.34375 C 1.292969 -4.515625 1.335938 -4.691406 1.441406 -4.820312 C 1.695312 -5.140625 2.152344 -5.28125 2.570312 -5.28125 C 3.09375 -5.28125 3.664062 -5.046875 3.785156 -4.507812 Z M 3.785156 -4.507812 "/></g></g></g><g fill="#d4c599" fill-opacity="1"><g transform="translate(313.138886, 158.656873)"><g><path d="M 0.746094 0 L 1.625 0 L 1.625 -2.667969 L 4.054688 -2.667969 L 4.054688 -3.484375 L 1.625 -3.484375 L 1.625 -5.28125 L 4.367188 -5.28125 L 4.367188 -6.132812 L 0.746094 -6.132812 Z M 0.746094 0 "/></g></g></g><g fill="#d4c599" fill-opacity="1"><g transform="translate(317.698567, 158.656873)"><g><path d="M 0.304688 -3.039062 C 0.304688 -1.285156 1.703125 0.113281 3.457031 0.113281 C 5.210938 0.113281 6.617188 -1.285156 6.617188 -3.039062 C 6.617188 -4.792969 5.210938 -6.199219 3.457031 -6.199219 C 1.703125 -6.199219 0.304688 -4.792969 0.304688 -3.039062 Z M 1.207031 -3.039062 C 1.207031 -4.289062 2.207031 -5.296875 3.457031 -5.296875 C 4.707031 -5.296875 5.714844 -4.289062 5.714844 -3.039062 C 5.714844 -1.789062 4.707031 -0.789062 3.457031 -0.789062 C 2.207031 -0.789062 1.207031 -1.789062 1.207031 -3.039062 Z M 1.207031 -3.039062 "/></g></g></g><g fill="#d4c599" fill-opacity="1"><g transform="translate(324.681389, 158.656873)"><g><path d="M 2.960938 -3.082031 L 1.9375 -3.082031 L 1.9375 -2.667969 L 4.152344 0 L 5.289062 0 L 3.371094 -2.285156 C 4.410156 -2.464844 4.941406 -3.28125 4.941406 -4.144531 C 4.941406 -5.105469 4.28125 -6.15625 2.960938 -6.15625 L 0.746094 -6.15625 L 0.746094 0 L 1.617188 0 L 1.617188 -5.273438 L 2.960938 -5.273438 C 3.699219 -5.273438 4.066406 -4.664062 4.066406 -4.144531 C 4.066406 -3.613281 3.699219 -3.082031 2.960938 -3.082031 Z M 2.960938 -3.082031 "/></g></g></g><g fill="#d4c599" fill-opacity="1"><g transform="translate(329.857722, 158.656873)"><g><path d="M 0.746094 0 L 1.625 0 L 1.625 -4.28125 L 3.214844 -1.917969 L 3.707031 -1.917969 L 5.296875 -4.28125 L 5.296875 0 L 6.167969 0 L 6.167969 -6.078125 L 5.472656 -6.078125 L 3.464844 -3.125 L 1.460938 -6.078125 L 0.746094 -6.078125 Z M 0.746094 0 "/></g></g></g><g fill="#d4c599" fill-opacity="1"><g transform="translate(336.762378, 158.656873)"><g><path d="M 1.503906 -1.539062 L 3.96875 -1.539062 L 4.550781 0 L 5.488281 0 L 3.046875 -6.15625 L 2.40625 -6.15625 L -0.0351562 0 L 0.910156 0 Z M 3.648438 -2.363281 L 1.824219 -2.363281 L 2.734375 -4.757812 Z M 3.648438 -2.363281 "/></g></g></g><g fill="#d4c599" fill-opacity="1"><g transform="translate(342.268737, 158.656873)"><g><path d="M 1.894531 -5.304688 L 1.894531 0 L 2.769531 0 L 2.769531 -5.304688 L 4.601562 -5.304688 L 4.601562 -6.140625 L 0.0507812 -6.140625 L 0.0507812 -5.304688 Z M 1.894531 -5.304688 "/></g></g></g><g fill="#d4c599" fill-opacity="1"><g transform="translate(346.932625, 158.656873)"><g><path d="M 2.753906 -5.324219 L 3.882812 -5.324219 L 3.882812 -6.132812 L 0.746094 -6.132812 L 0.746094 -5.324219 L 1.875 -5.324219 L 1.875 -0.816406 L 0.746094 -0.816406 L 0.746094 0 L 3.882812 0 L 3.882812 -0.816406 L 2.753906 -0.816406 Z M 2.753906 -5.324219 "/></g></g></g><g fill="#d4c599" fill-opacity="1"><g transform="translate(351.55309, 158.656873)"><g><path d="M 0.304688 -3.039062 C 0.304688 -1.285156 1.703125 0.113281 3.457031 0.113281 C 5.210938 0.113281 6.617188 -1.285156 6.617188 -3.039062 C 6.617188 -4.792969 5.210938 -6.199219 3.457031 -6.199219 C 1.703125 -6.199219 0.304688 -4.792969 0.304688 -3.039062 Z M 1.207031 -3.039062 C 1.207031 -4.289062 2.207031 -5.296875 3.457031 -5.296875 C 4.707031 -5.296875 5.714844 -4.289062 5.714844 -3.039062 C 5.714844 -1.789062 4.707031 -0.789062 3.457031 -0.789062 C 2.207031 -0.789062 1.207031 -1.789062 1.207031 -3.039062 Z M 1.207031 -3.039062 "/></g></g></g><g fill="#d4c599" fill-opacity="1"><g transform="translate(358.535912, 158.656873)"><g><path d="M 0.746094 -6.078125 L 0.746094 0 L 1.625 0 L 1.625 -4.246094 L 4.558594 0 L 5.253906 0 L 5.253906 -6.078125 L 4.386719 -6.078125 L 4.386719 -1.796875 L 1.425781 -6.078125 Z M 0.746094 -6.078125 "/></g></g></g></svg>