<svg xmlns="http://www.w3.org/2000/svg" xmlns:xlink="http://www.w3.org/1999/xlink" width="500" zoomAndPan="magnify" viewBox="0 0 375 225" height="300" preserveAspectRatio="xMidYMid meet" version="1.0"><defs><g/></defs><g fill="#d4c599" fill-opacity="1"><g transform="translate(8.532656, 133.210756)"><g><path d="M 20.96875 -50.84375 L 20.96875 -38.0625 L 41.578125 -38.0625 L 41.578125 -26.1875 L 20.96875 -26.1875 L 20.96875 -12.328125 L 44.28125 -12.328125 L 44.28125 0 L 5.578125 0 L 5.578125 -63.1875 L 44.28125 -63.1875 L 44.28125 -50.84375 Z M 20.96875 -50.84375 "/></g></g></g><g fill="#d4c599" fill-opacity="1"><g transform="translate(49.842607, 133.210756)"><g><path d="M 37.796875 0 L 24.65625 -23.84375 L 20.96875 -23.84375 L 20.96875 0 L 5.578125 0 L 5.578125 -63.1875 L 31.40625 -63.1875 C 36.382812 -63.1875 40.628906 -62.3125 44.140625 -60.5625 C 47.648438 -58.820312 50.273438 -56.4375 52.015625 -53.40625 C 53.753906 -50.382812 54.625 -47.015625 54.625 -43.296875 C 54.625 -39.085938 53.4375 -35.332031 51.0625 -32.03125 C 48.695312 -28.738281 45.207031 -26.398438 40.59375 -25.015625 L 55.171875 0 Z M 20.96875 -34.734375 L 30.515625 -34.734375 C 33.328125 -34.734375 35.4375 -35.421875 36.84375 -36.796875 C 38.257812 -38.179688 38.96875 -40.132812 38.96875 -42.65625 C 38.96875 -45.0625 38.257812 -46.953125 36.84375 -48.328125 C 35.4375 -49.710938 33.328125 -50.40625 30.515625 -50.40625 L 20.96875 -50.40625 Z M 20.96875 -34.734375 "/></g></g></g><g fill="#d4c599" fill-opacity="1"><g transform="translate(101.142555, 133.210756)"><g><path d="M 44.90625 -11.15625 L 21.328125 -11.15625 L 17.546875 0 L 1.4375 0 L 24.296875 -63.1875 L 42.125 -63.1875 L 64.984375 0 L 48.6875 0 Z M 40.953125 -23.046875 L 33.125 -46.171875 L 25.375 -23.046875 Z M 40.953125 -23.046875 "/></g></g></g><g fill="#d4c599" fill-opacity="1"><g transform="translate(160.092488, 133.210756)"><g><path d="M 28.4375 0.625 C 23.820312 0.625 19.679688 -0.125 16.015625 -1.625 C 12.359375 -3.125 9.429688 -5.34375 7.234375 -8.28125 C 5.046875 -11.21875 3.894531 -14.757812 3.78125 -18.90625 L 20.15625 -18.90625 C 20.394531 -16.5625 21.203125 -14.773438 22.578125 -13.546875 C 23.960938 -12.316406 25.765625 -11.703125 27.984375 -11.703125 C 30.265625 -11.703125 32.066406 -12.222656 33.390625 -13.265625 C 34.710938 -14.316406 35.375 -15.773438 35.375 -17.640625 C 35.375 -19.203125 34.847656 -20.492188 33.796875 -21.515625 C 32.742188 -22.535156 31.453125 -23.375 29.921875 -24.03125 C 28.390625 -24.6875 26.21875 -25.4375 23.40625 -26.28125 C 19.320312 -27.539062 15.988281 -28.800781 13.40625 -30.0625 C 10.832031 -31.320312 8.613281 -33.179688 6.75 -35.640625 C 4.882812 -38.097656 3.953125 -41.304688 3.953125 -45.265625 C 3.953125 -51.148438 6.082031 -55.753906 10.34375 -59.078125 C 14.601562 -62.410156 20.15625 -64.078125 27 -64.078125 C 33.957031 -64.078125 39.566406 -62.410156 43.828125 -59.078125 C 48.085938 -55.753906 50.367188 -51.125 50.671875 -45.1875 L 34.015625 -45.1875 C 33.898438 -47.21875 33.148438 -48.816406 31.765625 -49.984375 C 30.390625 -51.160156 28.617188 -51.75 26.453125 -51.75 C 24.597656 -51.75 23.097656 -51.253906 21.953125 -50.265625 C 20.816406 -49.273438 20.25 -47.847656 20.25 -45.984375 C 20.25 -43.953125 21.207031 -42.363281 23.125 -41.21875 C 25.050781 -40.082031 28.050781 -38.851562 32.125 -37.53125 C 36.207031 -36.144531 39.523438 -34.820312 42.078125 -33.5625 C 44.628906 -32.3125 46.832031 -30.484375 48.6875 -28.078125 C 50.550781 -25.679688 51.484375 -22.59375 51.484375 -18.8125 C 51.484375 -15.207031 50.566406 -11.9375 48.734375 -9 C 46.898438 -6.0625 44.242188 -3.722656 40.765625 -1.984375 C 37.285156 -0.242188 33.175781 0.625 28.4375 0.625 Z M 28.4375 0.625 "/></g></g></g><g fill="#d4c599" fill-opacity="1"><g transform="translate(208.062423, 133.210756)"><g><path d="M 35.453125 0.625 C 29.515625 0.625 24.070312 -0.753906 19.125 -3.515625 C 14.175781 -6.273438 10.242188 -10.128906 7.328125 -15.078125 C 4.421875 -20.023438 2.96875 -25.585938 2.96875 -31.765625 C 2.96875 -37.953125 4.421875 -43.503906 7.328125 -48.421875 C 10.242188 -53.335938 14.175781 -57.175781 19.125 -59.9375 C 24.070312 -62.695312 29.515625 -64.078125 35.453125 -64.078125 C 41.398438 -64.078125 46.847656 -62.695312 51.796875 -59.9375 C 56.742188 -57.175781 60.640625 -53.335938 63.484375 -48.421875 C 66.335938 -43.503906 67.765625 -37.953125 67.765625 -31.765625 C 67.765625 -25.585938 66.320312 -20.023438 63.4375 -15.078125 C 60.5625 -10.128906 56.664062 -6.273438 51.75 -3.515625 C 46.832031 -0.753906 41.398438 0.625 35.453125 0.625 Z M 35.453125 -13.40625 C 40.492188 -13.40625 44.53125 -15.082031 47.5625 -18.4375 C 50.59375 -21.800781 52.109375 -26.242188 52.109375 -31.765625 C 52.109375 -37.347656 50.59375 -41.800781 47.5625 -45.125 C 44.53125 -48.457031 40.492188 -50.125 35.453125 -50.125 C 30.359375 -50.125 26.296875 -48.472656 23.265625 -45.171875 C 20.234375 -41.878906 18.71875 -37.410156 18.71875 -31.765625 C 18.71875 -26.191406 20.234375 -21.738281 23.265625 -18.40625 C 26.296875 -15.070312 30.359375 -13.40625 35.453125 -13.40625 Z M 35.453125 -13.40625 "/></g></g></g><g fill="#d4c599" fill-opacity="1"><g transform="translate(271.422359, 133.210756)"><g><path d="M 46.703125 -63.1875 L 46.703125 -50.84375 L 20.96875 -50.84375 L 20.96875 -37.53125 L 40.234375 -37.53125 L 40.234375 -25.5625 L 20.96875 -25.5625 L 20.96875 0 L 5.578125 0 L 5.578125 -63.1875 Z M 46.703125 -63.1875 "/></g></g></g><g fill="#d4c599" fill-opacity="1"><g transform="translate(313.272303, 133.210756)"><g><path d="M 51.03125 -63.1875 L 51.03125 -50.84375 L 34.296875 -50.84375 L 34.296875 0 L 18.90625 0 L 18.90625 -50.84375 L 2.15625 -50.84375 L 2.15625 -63.1875 Z M 51.03125 -63.1875 "/></g></g></g><g fill="#d4c599" fill-opacity="1"><g transform="translate(37.628905, 159.539211)"><g><path d="M 3.25 -7.015625 C 3.988281 -7.015625 4.632812 -6.867188 5.1875 -6.578125 C 5.738281 -6.285156 6.164062 -5.875 6.46875 -5.34375 C 6.78125 -4.8125 6.9375 -4.203125 6.9375 -3.515625 C 6.9375 -2.828125 6.78125 -2.210938 6.46875 -1.671875 C 6.164062 -1.140625 5.734375 -0.726562 5.171875 -0.4375 C 4.617188 -0.144531 3.976562 0 3.25 0 L 0.625 0 L 0.625 -7.015625 Z M 3.140625 -1.484375 C 3.785156 -1.484375 4.285156 -1.660156 4.640625 -2.015625 C 5.003906 -2.367188 5.1875 -2.867188 5.1875 -3.515625 C 5.1875 -4.160156 5.003906 -4.660156 4.640625 -5.015625 C 4.285156 -5.378906 3.785156 -5.5625 3.140625 -5.5625 L 2.328125 -5.5625 L 2.328125 -1.484375 Z M 3.140625 -1.484375 "/></g></g></g><g fill="#d4c599" fill-opacity="1"><g transform="translate(44.89604, 159.539211)"><g><path d="M 2.328125 -7.015625 L 2.328125 0 L 0.625 0 L 0.625 -7.015625 Z M 2.328125 -7.015625 "/></g></g></g><g fill="#d4c599" fill-opacity="1"><g transform="translate(47.844873, 159.539211)"><g><path d="M 3.15625 0.0625 C 2.644531 0.0625 2.1875 -0.0195312 1.78125 -0.1875 C 1.375 -0.351562 1.046875 -0.597656 0.796875 -0.921875 C 0.554688 -1.242188 0.429688 -1.632812 0.421875 -2.09375 L 2.234375 -2.09375 C 2.265625 -1.832031 2.351562 -1.632812 2.5 -1.5 C 2.65625 -1.363281 2.859375 -1.296875 3.109375 -1.296875 C 3.359375 -1.296875 3.554688 -1.351562 3.703125 -1.46875 C 3.859375 -1.59375 3.9375 -1.753906 3.9375 -1.953125 C 3.9375 -2.128906 3.875 -2.273438 3.75 -2.390625 C 3.632812 -2.503906 3.488281 -2.597656 3.3125 -2.671875 C 3.144531 -2.742188 2.90625 -2.828125 2.59375 -2.921875 C 2.144531 -3.054688 1.773438 -3.191406 1.484375 -3.328125 C 1.203125 -3.472656 0.957031 -3.679688 0.75 -3.953125 C 0.539062 -4.234375 0.4375 -4.59375 0.4375 -5.03125 C 0.4375 -5.6875 0.671875 -6.195312 1.140625 -6.5625 C 1.617188 -6.9375 2.238281 -7.125 3 -7.125 C 3.769531 -7.125 4.390625 -6.9375 4.859375 -6.5625 C 5.335938 -6.195312 5.59375 -5.679688 5.625 -5.015625 L 3.78125 -5.015625 C 3.769531 -5.242188 3.6875 -5.421875 3.53125 -5.546875 C 3.375 -5.679688 3.175781 -5.75 2.9375 -5.75 C 2.726562 -5.75 2.5625 -5.691406 2.4375 -5.578125 C 2.3125 -5.472656 2.25 -5.316406 2.25 -5.109375 C 2.25 -4.878906 2.351562 -4.703125 2.5625 -4.578125 C 2.78125 -4.453125 3.113281 -4.316406 3.5625 -4.171875 C 4.019531 -4.015625 4.390625 -3.863281 4.671875 -3.71875 C 4.953125 -3.582031 5.195312 -3.378906 5.40625 -3.109375 C 5.613281 -2.847656 5.71875 -2.507812 5.71875 -2.09375 C 5.71875 -1.6875 5.613281 -1.320312 5.40625 -1 C 5.207031 -0.675781 4.914062 -0.414062 4.53125 -0.21875 C 4.144531 -0.03125 3.6875 0.0625 3.15625 0.0625 Z M 3.15625 0.0625 "/></g></g></g><g fill="#d4c599" fill-opacity="1"><g transform="translate(53.992445, 159.539211)"><g><path d="M 0.328125 -3.515625 C 0.328125 -4.210938 0.476562 -4.832031 0.78125 -5.375 C 1.082031 -5.914062 1.5 -6.335938 2.03125 -6.640625 C 2.570312 -6.941406 3.179688 -7.09375 3.859375 -7.09375 C 4.691406 -7.09375 5.40625 -6.875 6 -6.4375 C 6.59375 -6 6.988281 -5.398438 7.1875 -4.640625 L 5.3125 -4.640625 C 5.164062 -4.929688 4.960938 -5.15625 4.703125 -5.3125 C 4.453125 -5.46875 4.164062 -5.546875 3.84375 -5.546875 C 3.3125 -5.546875 2.878906 -5.359375 2.546875 -4.984375 C 2.222656 -4.617188 2.0625 -4.128906 2.0625 -3.515625 C 2.0625 -2.898438 2.222656 -2.410156 2.546875 -2.046875 C 2.878906 -1.679688 3.3125 -1.5 3.84375 -1.5 C 4.164062 -1.5 4.453125 -1.570312 4.703125 -1.71875 C 4.960938 -1.875 5.164062 -2.101562 5.3125 -2.40625 L 7.1875 -2.40625 C 6.988281 -1.644531 6.59375 -1.046875 6 -0.609375 C 5.40625 -0.171875 4.691406 0.046875 3.859375 0.046875 C 3.179688 0.046875 2.570312 -0.101562 2.03125 -0.40625 C 1.5 -0.707031 1.082031 -1.128906 0.78125 -1.671875 C 0.476562 -2.210938 0.328125 -2.828125 0.328125 -3.515625 Z M 0.328125 -3.515625 "/></g></g></g><g fill="#d4c599" fill-opacity="1"><g transform="translate(61.609437, 159.539211)"><g><path d="M 3.9375 0.0625 C 3.28125 0.0625 2.675781 -0.0859375 2.125 -0.390625 C 1.570312 -0.691406 1.132812 -1.117188 0.8125 -1.671875 C 0.488281 -2.222656 0.328125 -2.84375 0.328125 -3.53125 C 0.328125 -4.21875 0.488281 -4.832031 0.8125 -5.375 C 1.132812 -5.925781 1.570312 -6.351562 2.125 -6.65625 C 2.675781 -6.96875 3.28125 -7.125 3.9375 -7.125 C 4.601562 -7.125 5.207031 -6.96875 5.75 -6.65625 C 6.300781 -6.351562 6.734375 -5.925781 7.046875 -5.375 C 7.367188 -4.832031 7.53125 -4.21875 7.53125 -3.53125 C 7.53125 -2.84375 7.367188 -2.222656 7.046875 -1.671875 C 6.722656 -1.117188 6.289062 -0.691406 5.75 -0.390625 C 5.207031 -0.0859375 4.601562 0.0625 3.9375 0.0625 Z M 3.9375 -1.484375 C 4.5 -1.484375 4.945312 -1.671875 5.28125 -2.046875 C 5.625 -2.421875 5.796875 -2.914062 5.796875 -3.53125 C 5.796875 -4.144531 5.625 -4.632812 5.28125 -5 C 4.945312 -5.375 4.5 -5.5625 3.9375 -5.5625 C 3.375 -5.5625 2.921875 -5.378906 2.578125 -5.015625 C 2.242188 -4.648438 2.078125 -4.15625 2.078125 -3.53125 C 2.078125 -2.90625 2.242188 -2.40625 2.578125 -2.03125 C 2.921875 -1.664062 3.375 -1.484375 3.9375 -1.484375 Z M 3.9375 -1.484375 "/></g></g></g><g fill="#d4c599" fill-opacity="1"><g transform="translate(69.466332, 159.539211)"><g><path d="M 7.203125 -7.015625 L 4.71875 0 L 2.578125 0 L 0.09375 -7.015625 L 1.90625 -7.015625 L 3.65625 -1.71875 L 5.40625 -7.015625 Z M 7.203125 -7.015625 "/></g></g></g><g fill="#d4c599" fill-opacity="1"><g transform="translate(76.763451, 159.539211)"><g><path d="M 2.328125 -5.65625 L 2.328125 -4.234375 L 4.625 -4.234375 L 4.625 -2.90625 L 2.328125 -2.90625 L 2.328125 -1.375 L 4.921875 -1.375 L 4.921875 0 L 0.625 0 L 0.625 -7.015625 L 4.921875 -7.015625 L 4.921875 -5.65625 Z M 2.328125 -5.65625 "/></g></g></g><g fill="#d4c599" fill-opacity="1"><g transform="translate(82.171322, 159.539211)"><g><path d="M 4.203125 0 L 2.734375 -2.65625 L 2.328125 -2.65625 L 2.328125 0 L 0.625 0 L 0.625 -7.015625 L 3.484375 -7.015625 C 4.035156 -7.015625 4.503906 -6.914062 4.890625 -6.71875 C 5.285156 -6.53125 5.578125 -6.269531 5.765625 -5.9375 C 5.960938 -5.601562 6.0625 -5.226562 6.0625 -4.8125 C 6.0625 -4.34375 5.929688 -3.925781 5.671875 -3.5625 C 5.410156 -3.195312 5.023438 -2.9375 4.515625 -2.78125 L 6.125 0 Z M 2.328125 -3.859375 L 3.390625 -3.859375 C 3.703125 -3.859375 3.9375 -3.929688 4.09375 -4.078125 C 4.25 -4.234375 4.328125 -4.453125 4.328125 -4.734375 C 4.328125 -5.003906 4.25 -5.210938 4.09375 -5.359375 C 3.9375 -5.515625 3.703125 -5.59375 3.390625 -5.59375 L 2.328125 -5.59375 Z M 2.328125 -3.859375 "/></g></g></g><g fill="#d4c599" fill-opacity="1"><g transform="translate(88.688755, 159.539211)"><g/></g></g><g fill="#d4c599" fill-opacity="1"><g transform="translate(90.807915, 159.539211)"><g><path d="M 5.671875 -7.015625 L 5.671875 -5.65625 L 3.8125 -5.65625 L 3.8125 0 L 2.09375 0 L 2.09375 -5.65625 L 0.234375 -5.65625 L 0.234375 -7.015625 Z M 5.671875 -7.015625 "/></g></g></g><g fill="#d4c599" fill-opacity="1"><g transform="translate(96.715584, 159.539211)"><g><path d="M 6.703125 -7.015625 L 6.703125 0 L 4.984375 0 L 4.984375 -2.890625 L 2.328125 -2.890625 L 2.328125 0 L 0.625 0 L 0.625 -7.015625 L 2.328125 -7.015625 L 2.328125 -4.265625 L 4.984375 -4.265625 L 4.984375 -7.015625 Z M 6.703125 -7.015625 "/></g></g></g><g fill="#d4c599" fill-opacity="1"><g transform="translate(104.022705, 159.539211)"><g><path d="M 2.328125 -5.65625 L 2.328125 -4.234375 L 4.625 -4.234375 L 4.625 -2.90625 L 2.328125 -2.90625 L 2.328125 -1.375 L 4.921875 -1.375 L 4.921875 0 L 0.625 0 L 0.625 -7.015625 L 4.921875 -7.015625 L 4.921875 -5.65625 Z M 2.328125 -5.65625 "/></g></g></g><g fill="#d4c599" fill-opacity="1"><g transform="translate(109.430576, 159.539211)"><g/></g></g><g fill="#d4c599" fill-opacity="1"><g transform="translate(111.549735, 159.539211)"><g><path d="M 5.96875 -4.765625 C 5.96875 -4.359375 5.875 -3.984375 5.6875 -3.640625 C 5.5 -3.304688 5.210938 -3.035156 4.828125 -2.828125 C 4.441406 -2.617188 3.960938 -2.515625 3.390625 -2.515625 L 2.328125 -2.515625 L 2.328125 0 L 0.625 0 L 0.625 -7.015625 L 3.390625 -7.015625 C 3.953125 -7.015625 4.425781 -6.914062 4.8125 -6.71875 C 5.195312 -6.53125 5.484375 -6.265625 5.671875 -5.921875 C 5.867188 -5.585938 5.96875 -5.203125 5.96875 -4.765625 Z M 3.265625 -3.875 C 3.585938 -3.875 3.828125 -3.953125 3.984375 -4.109375 C 4.148438 -4.265625 4.234375 -4.484375 4.234375 -4.765625 C 4.234375 -5.046875 4.148438 -5.257812 3.984375 -5.40625 C 3.828125 -5.5625 3.585938 -5.640625 3.265625 -5.640625 L 2.328125 -5.640625 L 2.328125 -3.875 Z M 3.265625 -3.875 "/></g></g></g><g fill="#d4c599" fill-opacity="1"><g transform="translate(117.78728, 159.539211)"><g><path d="M 3.9375 0.0625 C 3.28125 0.0625 2.675781 -0.0859375 2.125 -0.390625 C 1.570312 -0.691406 1.132812 -1.117188 0.8125 -1.671875 C 0.488281 -2.222656 0.328125 -2.84375 0.328125 -3.53125 C 0.328125 -4.21875 0.488281 -4.832031 0.8125 -5.375 C 1.132812 -5.925781 1.570312 -6.351562 2.125 -6.65625 C 2.675781 -6.96875 3.28125 -7.125 3.9375 -7.125 C 4.601562 -7.125 5.207031 -6.96875 5.75 -6.65625 C 6.300781 -6.351562 6.734375 -5.925781 7.046875 -5.375 C 7.367188 -4.832031 7.53125 -4.21875 7.53125 -3.53125 C 7.53125 -2.84375 7.367188 -2.222656 7.046875 -1.671875 C 6.722656 -1.117188 6.289062 -0.691406 5.75 -0.390625 C 5.207031 -0.0859375 4.601562 0.0625 3.9375 0.0625 Z M 3.9375 -1.484375 C 4.5 -1.484375 4.945312 -1.671875 5.28125 -2.046875 C 5.625 -2.421875 5.796875 -2.914062 5.796875 -3.53125 C 5.796875 -4.144531 5.625 -4.632812 5.28125 -5 C 4.945312 -5.375 4.5 -5.5625 3.9375 -5.5625 C 3.375 -5.5625 2.921875 -5.378906 2.578125 -5.015625 C 2.242188 -4.648438 2.078125 -4.15625 2.078125 -3.53125 C 2.078125 -2.90625 2.242188 -2.40625 2.578125 -2.03125 C 2.921875 -1.664062 3.375 -1.484375 3.9375 -1.484375 Z M 3.9375 -1.484375 "/></g></g></g><g fill="#d4c599" fill-opacity="1"><g transform="translate(125.644175, 159.539211)"><g><path d="M 10.28125 -7.015625 L 8.453125 0 L 6.375 0 L 5.265625 -4.625 L 4.09375 0 L 2.03125 0 L 0.25 -7.015625 L 2.078125 -7.015625 L 3.09375 -1.90625 L 4.34375 -7.015625 L 6.21875 -7.015625 L 7.421875 -1.90625 L 8.4375 -7.015625 Z M 10.28125 -7.015625 "/></g></g></g><g fill="#d4c599" fill-opacity="1"><g transform="translate(136.160025, 159.539211)"><g><path d="M 2.328125 -5.65625 L 2.328125 -4.234375 L 4.625 -4.234375 L 4.625 -2.90625 L 2.328125 -2.90625 L 2.328125 -1.375 L 4.921875 -1.375 L 4.921875 0 L 0.625 0 L 0.625 -7.015625 L 4.921875 -7.015625 L 4.921875 -5.65625 Z M 2.328125 -5.65625 "/></g></g></g><g fill="#d4c599" fill-opacity="1"><g transform="translate(141.567896, 159.539211)"><g><path d="M 4.203125 0 L 2.734375 -2.65625 L 2.328125 -2.65625 L 2.328125 0 L 0.625 0 L 0.625 -7.015625 L 3.484375 -7.015625 C 4.035156 -7.015625 4.503906 -6.914062 4.890625 -6.71875 C 5.285156 -6.53125 5.578125 -6.269531 5.765625 -5.9375 C 5.960938 -5.601562 6.0625 -5.226562 6.0625 -4.8125 C 6.0625 -4.34375 5.929688 -3.925781 5.671875 -3.5625 C 5.410156 -3.195312 5.023438 -2.9375 4.515625 -2.78125 L 6.125 0 Z M 2.328125 -3.859375 L 3.390625 -3.859375 C 3.703125 -3.859375 3.9375 -3.929688 4.09375 -4.078125 C 4.25 -4.234375 4.328125 -4.453125 4.328125 -4.734375 C 4.328125 -5.003906 4.25 -5.210938 4.09375 -5.359375 C 3.9375 -5.515625 3.703125 -5.59375 3.390625 -5.59375 L 2.328125 -5.59375 Z M 2.328125 -3.859375 "/></g></g></g><g fill="#d4c599" fill-opacity="1"><g transform="translate(148.085329, 159.539211)"><g/></g></g><g fill="#d4c599" fill-opacity="1"><g transform="translate(150.204488, 159.539211)"><g><path d="M 3.9375 0.0625 C 3.28125 0.0625 2.675781 -0.0859375 2.125 -0.390625 C 1.570312 -0.691406 1.132812 -1.117188 0.8125 -1.671875 C 0.488281 -2.222656 0.328125 -2.84375 0.328125 -3.53125 C 0.328125 -4.21875 0.488281 -4.832031 0.8125 -5.375 C 1.132812 -5.925781 1.570312 -6.351562 2.125 -6.65625 C 2.675781 -6.96875 3.28125 -7.125 3.9375 -7.125 C 4.601562 -7.125 5.207031 -6.96875 5.75 -6.65625 C 6.300781 -6.351562 6.734375 -5.925781 7.046875 -5.375 C 7.367188 -4.832031 7.53125 -4.21875 7.53125 -3.53125 C 7.53125 -2.84375 7.367188 -2.222656 7.046875 -1.671875 C 6.722656 -1.117188 6.289062 -0.691406 5.75 -0.390625 C 5.207031 -0.0859375 4.601562 0.0625 3.9375 0.0625 Z M 3.9375 -1.484375 C 4.5 -1.484375 4.945312 -1.671875 5.28125 -2.046875 C 5.625 -2.421875 5.796875 -2.914062 5.796875 -3.53125 C 5.796875 -4.144531 5.625 -4.632812 5.28125 -5 C 4.945312 -5.375 4.5 -5.5625 3.9375 -5.5625 C 3.375 -5.5625 2.921875 -5.378906 2.578125 -5.015625 C 2.242188 -4.648438 2.078125 -4.15625 2.078125 -3.53125 C 2.078125 -2.90625 2.242188 -2.40625 2.578125 -2.03125 C 2.921875 -1.664062 3.375 -1.484375 3.9375 -1.484375 Z M 3.9375 -1.484375 "/></g></g></g><g fill="#d4c599" fill-opacity="1"><g transform="translate(158.061384, 159.539211)"><g><path d="M 5.1875 -7.015625 L 5.1875 -5.65625 L 2.328125 -5.65625 L 2.328125 -4.171875 L 4.46875 -4.171875 L 4.46875 -2.84375 L 2.328125 -2.84375 L 2.328125 0 L 0.625 0 L 0.625 -7.015625 Z M 5.1875 -7.015625 "/></g></g></g><g fill="#d4c599" fill-opacity="1"><g transform="translate(163.529222, 159.539211)"><g/></g></g><g fill="#d4c599" fill-opacity="1"><g transform="translate(165.648381, 159.539211)"><g><path d="M 4.984375 -1.234375 L 2.375 -1.234375 L 1.953125 0 L 0.15625 0 L 2.703125 -7.015625 L 4.6875 -7.015625 L 7.21875 0 L 5.40625 0 Z M 4.546875 -2.5625 L 3.6875 -5.125 L 2.8125 -2.5625 Z M 4.546875 -2.5625 "/></g></g></g><g fill="#d4c599" fill-opacity="1"><g transform="translate(173.015469, 159.539211)"><g><path d="M 2.328125 -7.015625 L 2.328125 0 L 0.625 0 L 0.625 -7.015625 Z M 2.328125 -7.015625 "/></g></g></g><g fill="#d4c599" fill-opacity="1"><g transform="translate(175.964303, 159.539211)"><g/></g></g><g fill="#d4c599" fill-opacity="1"><g transform="translate(178.083462, 159.539211)"><g><path d="M 4.984375 -1.234375 L 2.375 -1.234375 L 1.953125 0 L 0.15625 0 L 2.703125 -7.015625 L 4.6875 -7.015625 L 7.21875 0 L 5.40625 0 Z M 4.546875 -2.5625 L 3.6875 -5.125 L 2.8125 -2.5625 Z M 4.546875 -2.5625 "/></g></g></g><g fill="#d4c599" fill-opacity="1"><g transform="translate(185.45055, 159.539211)"><g><path d="M 6.90625 0 L 5.1875 0 L 2.328125 -4.328125 L 2.328125 0 L 0.625 0 L 0.625 -7.015625 L 2.328125 -7.015625 L 5.1875 -2.671875 L 5.1875 -7.015625 L 6.90625 -7.015625 Z M 6.90625 0 "/></g></g></g><g fill="#d4c599" fill-opacity="1"><g transform="translate(192.96759, 159.539211)"><g><path d="M 3.25 -7.015625 C 3.988281 -7.015625 4.632812 -6.867188 5.1875 -6.578125 C 5.738281 -6.285156 6.164062 -5.875 6.46875 -5.34375 C 6.78125 -4.8125 6.9375 -4.203125 6.9375 -3.515625 C 6.9375 -2.828125 6.78125 -2.210938 6.46875 -1.671875 C 6.164062 -1.140625 5.734375 -0.726562 5.171875 -0.4375 C 4.617188 -0.144531 3.976562 0 3.25 0 L 0.625 0 L 0.625 -7.015625 Z M 3.140625 -1.484375 C 3.785156 -1.484375 4.285156 -1.660156 4.640625 -2.015625 C 5.003906 -2.367188 5.1875 -2.867188 5.1875 -3.515625 C 5.1875 -4.160156 5.003906 -4.660156 4.640625 -5.015625 C 4.285156 -5.378906 3.785156 -5.5625 3.140625 -5.5625 L 2.328125 -5.5625 L 2.328125 -1.484375 Z M 3.140625 -1.484375 "/></g></g></g><g fill="#d4c599" fill-opacity="1"><g transform="translate(200.234725, 159.539211)"><g/></g></g><g fill="#d4c599" fill-opacity="1"><g transform="translate(202.353885, 159.539211)"><g><path d="M 3.25 -7.015625 C 3.988281 -7.015625 4.632812 -6.867188 5.1875 -6.578125 C 5.738281 -6.285156 6.164062 -5.875 6.46875 -5.34375 C 6.78125 -4.8125 6.9375 -4.203125 6.9375 -3.515625 C 6.9375 -2.828125 6.78125 -2.210938 6.46875 -1.671875 C 6.164062 -1.140625 5.734375 -0.726562 5.171875 -0.4375 C 4.617188 -0.144531 3.976562 0 3.25 0 L 0.625 0 L 0.625 -7.015625 Z M 3.140625 -1.484375 C 3.785156 -1.484375 4.285156 -1.660156 4.640625 -2.015625 C 5.003906 -2.367188 5.1875 -2.867188 5.1875 -3.515625 C 5.1875 -4.160156 5.003906 -4.660156 4.640625 -5.015625 C 4.285156 -5.378906 3.785156 -5.5625 3.140625 -5.5625 L 2.328125 -5.5625 L 2.328125 -1.484375 Z M 3.140625 -1.484375 "/></g></g></g><g fill="#d4c599" fill-opacity="1"><g transform="translate(209.62102, 159.539211)"><g><path d="M 2.328125 -7.015625 L 2.328125 0 L 0.625 0 L 0.625 -7.015625 Z M 2.328125 -7.015625 "/></g></g></g><g fill="#d4c599" fill-opacity="1"><g transform="translate(212.569854, 159.539211)"><g><path d="M 5.28125 -4.796875 C 5.15625 -5.035156 4.972656 -5.210938 4.734375 -5.328125 C 4.492188 -5.453125 4.21875 -5.515625 3.90625 -5.515625 C 3.34375 -5.515625 2.894531 -5.332031 2.5625 -4.96875 C 2.226562 -4.613281 2.0625 -4.128906 2.0625 -3.515625 C 2.0625 -2.867188 2.238281 -2.363281 2.59375 -2 C 2.945312 -1.632812 3.429688 -1.453125 4.046875 -1.453125 C 4.460938 -1.453125 4.816406 -1.554688 5.109375 -1.765625 C 5.398438 -1.984375 5.609375 -2.296875 5.734375 -2.703125 L 3.5625 -2.703125 L 3.5625 -3.953125 L 7.296875 -3.953125 L 7.296875 -2.375 C 7.160156 -1.945312 6.941406 -1.546875 6.640625 -1.171875 C 6.335938 -0.804688 5.953125 -0.507812 5.484375 -0.28125 C 5.023438 -0.0625 4.5 0.046875 3.90625 0.046875 C 3.21875 0.046875 2.597656 -0.101562 2.046875 -0.40625 C 1.503906 -0.707031 1.082031 -1.128906 0.78125 -1.671875 C 0.476562 -2.210938 0.328125 -2.828125 0.328125 -3.515625 C 0.328125 -4.210938 0.476562 -4.832031 0.78125 -5.375 C 1.082031 -5.914062 1.503906 -6.335938 2.046875 -6.640625 C 2.585938 -6.941406 3.207031 -7.09375 3.90625 -7.09375 C 4.738281 -7.09375 5.441406 -6.890625 6.015625 -6.484375 C 6.597656 -6.078125 6.984375 -5.515625 7.171875 -4.796875 Z M 5.28125 -4.796875 "/></g></g></g><g fill="#d4c599" fill-opacity="1"><g transform="translate(220.186846, 159.539211)"><g><path d="M 2.328125 -7.015625 L 2.328125 0 L 0.625 0 L 0.625 -7.015625 Z M 2.328125 -7.015625 "/></g></g></g><g fill="#d4c599" fill-opacity="1"><g transform="translate(223.13568, 159.539211)"><g><path d="M 5.671875 -7.015625 L 5.671875 -5.65625 L 3.8125 -5.65625 L 3.8125 0 L 2.09375 0 L 2.09375 -5.65625 L 0.234375 -5.65625 L 0.234375 -7.015625 Z M 5.671875 -7.015625 "/></g></g></g><g fill="#d4c599" fill-opacity="1"><g transform="translate(229.043349, 159.539211)"><g><path d="M 4.984375 -1.234375 L 2.375 -1.234375 L 1.953125 0 L 0.15625 0 L 2.703125 -7.015625 L 4.6875 -7.015625 L 7.21875 0 L 5.40625 0 Z M 4.546875 -2.5625 L 3.6875 -5.125 L 2.8125 -2.5625 Z M 4.546875 -2.5625 "/></g></g></g><g fill="#d4c599" fill-opacity="1"><g transform="translate(236.410437, 159.539211)"><g><path d="M 2.328125 -1.3125 L 4.5625 -1.3125 L 4.5625 0 L 0.625 0 L 0.625 -7.015625 L 2.328125 -7.015625 Z M 2.328125 -1.3125 "/></g></g></g><g fill="#d4c599" fill-opacity="1"><g transform="translate(241.178549, 159.539211)"><g/></g></g><g fill="#d4c599" fill-opacity="1"><g transform="translate(243.29772, 159.539211)"><g><path d="M 5.671875 -7.015625 L 5.671875 -5.65625 L 3.8125 -5.65625 L 3.8125 0 L 2.09375 0 L 2.09375 -5.65625 L 0.234375 -5.65625 L 0.234375 -7.015625 Z M 5.671875 -7.015625 "/></g></g></g><g fill="#d4c599" fill-opacity="1"><g transform="translate(249.205389, 159.539211)"><g><path d="M 4.203125 0 L 2.734375 -2.65625 L 2.328125 -2.65625 L 2.328125 0 L 0.625 0 L 0.625 -7.015625 L 3.484375 -7.015625 C 4.035156 -7.015625 4.503906 -6.914062 4.890625 -6.71875 C 5.285156 -6.53125 5.578125 -6.269531 5.765625 -5.9375 C 5.960938 -5.601562 6.0625 -5.226562 6.0625 -4.8125 C 6.0625 -4.34375 5.929688 -3.925781 5.671875 -3.5625 C 5.410156 -3.195312 5.023438 -2.9375 4.515625 -2.78125 L 6.125 0 Z M 2.328125 -3.859375 L 3.390625 -3.859375 C 3.703125 -3.859375 3.9375 -3.929688 4.09375 -4.078125 C 4.25 -4.234375 4.328125 -4.453125 4.328125 -4.734375 C 4.328125 -5.003906 4.25 -5.210938 4.09375 -5.359375 C 3.9375 -5.515625 3.703125 -5.59375 3.390625 -5.59375 L 2.328125 -5.59375 Z M 2.328125 -3.859375 "/></g></g></g><g fill="#d4c599" fill-opacity="1"><g transform="translate(255.722821, 159.539211)"><g><path d="M 4.984375 -1.234375 L 2.375 -1.234375 L 1.953125 0 L 0.15625 0 L 2.703125 -7.015625 L 4.6875 -7.015625 L 7.21875 0 L 5.40625 0 Z M 4.546875 -2.5625 L 3.6875 -5.125 L 2.8125 -2.5625 Z M 4.546875 -2.5625 "/></g></g></g><g fill="#d4c599" fill-opacity="1"><g transform="translate(263.089909, 159.539211)"><g><path d="M 6.90625 0 L 5.1875 0 L 2.328125 -4.328125 L 2.328125 0 L 0.625 0 L 0.625 -7.015625 L 2.328125 -7.015625 L 5.1875 -2.671875 L 5.1875 -7.015625 L 6.90625 -7.015625 Z M 6.90625 0 "/></g></g></g><g fill="#d4c599" fill-opacity="1"><g transform="translate(270.606938, 159.539211)"><g><path d="M 3.15625 0.0625 C 2.644531 0.0625 2.1875 -0.0195312 1.78125 -0.1875 C 1.375 -0.351562 1.046875 -0.597656 0.796875 -0.921875 C 0.554688 -1.242188 0.429688 -1.632812 0.421875 -2.09375 L 2.234375 -2.09375 C 2.265625 -1.832031 2.351562 -1.632812 2.5 -1.5 C 2.65625 -1.363281 2.859375 -1.296875 3.109375 -1.296875 C 3.359375 -1.296875 3.554688 -1.351562 3.703125 -1.46875 C 3.859375 -1.59375 3.9375 -1.753906 3.9375 -1.953125 C 3.9375 -2.128906 3.875 -2.273438 3.75 -2.390625 C 3.632812 -2.503906 3.488281 -2.597656 3.3125 -2.671875 C 3.144531 -2.742188 2.90625 -2.828125 2.59375 -2.921875 C 2.144531 -3.054688 1.773438 -3.191406 1.484375 -3.328125 C 1.203125 -3.472656 0.957031 -3.679688 0.75 -3.953125 C 0.539062 -4.234375 0.4375 -4.59375 0.4375 -5.03125 C 0.4375 -5.6875 0.671875 -6.195312 1.140625 -6.5625 C 1.617188 -6.9375 2.238281 -7.125 3 -7.125 C 3.769531 -7.125 4.390625 -6.9375 4.859375 -6.5625 C 5.335938 -6.195312 5.59375 -5.679688 5.625 -5.015625 L 3.78125 -5.015625 C 3.769531 -5.242188 3.6875 -5.421875 3.53125 -5.546875 C 3.375 -5.679688 3.175781 -5.75 2.9375 -5.75 C 2.726562 -5.75 2.5625 -5.691406 2.4375 -5.578125 C 2.3125 -5.472656 2.25 -5.316406 2.25 -5.109375 C 2.25 -4.878906 2.351562 -4.703125 2.5625 -4.578125 C 2.78125 -4.453125 3.113281 -4.316406 3.5625 -4.171875 C 4.019531 -4.015625 4.390625 -3.863281 4.671875 -3.71875 C 4.953125 -3.582031 5.195312 -3.378906 5.40625 -3.109375 C 5.613281 -2.847656 5.71875 -2.507812 5.71875 -2.09375 C 5.71875 -1.6875 5.613281 -1.320312 5.40625 -1 C 5.207031 -0.675781 4.914062 -0.414062 4.53125 -0.21875 C 4.144531 -0.03125 3.6875 0.0625 3.15625 0.0625 Z M 3.15625 0.0625 "/></g></g></g><g fill="#d4c599" fill-opacity="1"><g transform="translate(276.754521, 159.539211)"><g><path d="M 5.1875 -7.015625 L 5.1875 -5.65625 L 2.328125 -5.65625 L 2.328125 -4.171875 L 4.46875 -4.171875 L 4.46875 -2.84375 L 2.328125 -2.84375 L 2.328125 0 L 0.625 0 L 0.625 -7.015625 Z M 5.1875 -7.015625 "/></g></g></g><g fill="#d4c599" fill-opacity="1"><g transform="translate(282.22237, 159.539211)"><g><path d="M 3.9375 0.0625 C 3.28125 0.0625 2.675781 -0.0859375 2.125 -0.390625 C 1.570312 -0.691406 1.132812 -1.117188 0.8125 -1.671875 C 0.488281 -2.222656 0.328125 -2.84375 0.328125 -3.53125 C 0.328125 -4.21875 0.488281 -4.832031 0.8125 -5.375 C 1.132812 -5.925781 1.570312 -6.351562 2.125 -6.65625 C 2.675781 -6.96875 3.28125 -7.125 3.9375 -7.125 C 4.601562 -7.125 5.207031 -6.96875 5.75 -6.65625 C 6.300781 -6.351562 6.734375 -5.925781 7.046875 -5.375 C 7.367188 -4.832031 7.53125 -4.21875 7.53125 -3.53125 C 7.53125 -2.84375 7.367188 -2.222656 7.046875 -1.671875 C 6.722656 -1.117188 6.289062 -0.691406 5.75 -0.390625 C 5.207031 -0.0859375 4.601562 0.0625 3.9375 0.0625 Z M 3.9375 -1.484375 C 4.5 -1.484375 4.945312 -1.671875 5.28125 -2.046875 C 5.625 -2.421875 5.796875 -2.914062 5.796875 -3.53125 C 5.796875 -4.144531 5.625 -4.632812 5.28125 -5 C 4.945312 -5.375 4.5 -5.5625 3.9375 -5.5625 C 3.375 -5.5625 2.921875 -5.378906 2.578125 -5.015625 C 2.242188 -4.648438 2.078125 -4.15625 2.078125 -3.53125 C 2.078125 -2.90625 2.242188 -2.40625 2.578125 -2.03125 C 2.921875 -1.664062 3.375 -1.484375 3.9375 -1.484375 Z M 3.9375 -1.484375 "/></g></g></g><g fill="#d4c599" fill-opacity="1"><g transform="translate(290.079265, 159.539211)"><g><path d="M 4.203125 0 L 2.734375 -2.65625 L 2.328125 -2.65625 L 2.328125 0 L 0.625 0 L 0.625 -7.015625 L 3.484375 -7.015625 C 4.035156 -7.015625 4.503906 -6.914062 4.890625 -6.71875 C 5.285156 -6.53125 5.578125 -6.269531 5.765625 -5.9375 C 5.960938 -5.601562 6.0625 -5.226562 6.0625 -4.8125 C 6.0625 -4.34375 5.929688 -3.925781 5.671875 -3.5625 C 5.410156 -3.195312 5.023438 -2.9375 4.515625 -2.78125 L 6.125 0 Z M 2.328125 -3.859375 L 3.390625 -3.859375 C 3.703125 -3.859375 3.9375 -3.929688 4.09375 -4.078125 C 4.25 -4.234375 4.328125 -4.453125 4.328125 -4.734375 C 4.328125 -5.003906 4.25 -5.210938 4.09375 -5.359375 C 3.9375 -5.515625 3.703125 -5.59375 3.390625 -5.59375 L 2.328125 -5.59375 Z M 2.328125 -3.859375 "/></g></g></g><g fill="#d4c599" fill-opacity="1"><g transform="translate(296.596698, 159.539211)"><g><path d="M 8.5625 -7.015625 L 8.5625 0 L 6.859375 0 L 6.859375 -4.203125 L 5.296875 0 L 3.90625 0 L 2.328125 -4.21875 L 2.328125 0 L 0.625 0 L 0.625 -7.015625 L 2.640625 -7.015625 L 4.609375 -2.15625 L 6.5625 -7.015625 Z M 8.5625 -7.015625 "/></g></g></g><g fill="#d4c599" fill-opacity="1"><g transform="translate(305.773074, 159.539211)"><g><path d="M 4.984375 -1.234375 L 2.375 -1.234375 L 1.953125 0 L 0.15625 0 L 2.703125 -7.015625 L 4.6875 -7.015625 L 7.21875 0 L 5.40625 0 Z M 4.546875 -2.5625 L 3.6875 -5.125 L 2.8125 -2.5625 Z M 4.546875 -2.5625 "/></g></g></g><g fill="#d4c599" fill-opacity="1"><g transform="translate(313.140162, 159.539211)"><g><path d="M 5.671875 -7.015625 L 5.671875 -5.65625 L 3.8125 -5.65625 L 3.8125 0 L 2.09375 0 L 2.09375 -5.65625 L 0.234375 -5.65625 L 0.234375 -7.015625 Z M 5.671875 -7.015625 "/></g></g></g><g fill="#d4c599" fill-opacity="1"><g transform="translate(319.047831, 159.539211)"><g><path d="M 2.328125 -7.015625 L 2.328125 0 L 0.625 0 L 0.625 -7.015625 Z M 2.328125 -7.015625 "/></g></g></g><g fill="#d4c599" fill-opacity="1"><g transform="translate(321.996676, 159.539211)"><g><path d="M 3.9375 0.0625 C 3.28125 0.0625 2.675781 -0.0859375 2.125 -0.390625 C 1.570312 -0.691406 1.132812 -1.117188 0.8125 -1.671875 C 0.488281 -2.222656 0.328125 -2.84375 0.328125 -3.53125 C 0.328125 -4.21875 0.488281 -4.832031 0.8125 -5.375 C 1.132812 -5.925781 1.570312 -6.351562 2.125 -6.65625 C 2.675781 -6.96875 3.28125 -7.125 3.9375 -7.125 C 4.601562 -7.125 5.207031 -6.96875 5.75 -6.65625 C 6.300781 -6.351562 6.734375 -5.925781 7.046875 -5.375 C 7.367188 -4.832031 7.53125 -4.21875 7.53125 -3.53125 C 7.53125 -2.84375 7.367188 -2.222656 7.046875 -1.671875 C 6.722656 -1.117188 6.289062 -0.691406 5.75 -0.390625 C 5.207031 -0.0859375 4.601562 0.0625 3.9375 0.0625 Z M 3.9375 -1.484375 C 4.5 -1.484375 4.945312 -1.671875 5.28125 -2.046875 C 5.625 -2.421875 5.796875 -2.914062 5.796875 -3.53125 C 5.796875 -4.144531 5.625 -4.632812 5.28125 -5 C 4.945312 -5.375 4.5 -5.5625 3.9375 -5.5625 C 3.375 -5.5625 2.921875 -5.378906 2.578125 -5.015625 C 2.242188 -4.648438 2.078125 -4.15625 2.078125 -3.53125 C 2.078125 -2.90625 2.242188 -2.40625 2.578125 -2.03125 C 2.921875 -1.664062 3.375 -1.484375 3.9375 -1.484375 Z M 3.9375 -1.484375 "/></g></g></g><g fill="#d4c599" fill-opacity="1"><g transform="translate(329.853571, 159.539211)"><g><path d="M 6.90625 0 L 5.1875 0 L 2.328125 -4.328125 L 2.328125 0 L 0.625 0 L 0.625 -7.015625 L 2.328125 -7.015625 L 5.1875 -2.671875 L 5.1875 -7.015625 L 6.90625 -7.015625 Z M 6.90625 0 "/></g></g></g></svg>